<svg width="32" height="32" viewBox="0 0 32 32" fill="none" xmlns="http://www.w3.org/2000/svg">
<g clip-path="url(#clip0_149_8225)">
<path fill-rule="evenodd" clip-rule="evenodd" d="M2.09459 31.552L16.1359 17.5507L21.0853 22.4853L4.39325 31.74C3.75859 32.092 2.98125 32.0867 2.35059 31.7253L2.09459 31.552ZM14.7199 16.1387L1.33325 29.4867V2.79067L14.7199 16.1387ZM23.0853 10.6227L29.6253 14.248C30.2679 14.6053 30.6666 15.2747 30.6666 16C30.6666 16.7253 30.2679 17.3947 29.6253 17.752L22.9066 21.476L17.5533 16.1387L23.0853 10.6227ZM1.94659 0.577339C2.06659 0.461339 2.20125 0.360006 2.35059 0.274672C2.98125 -0.086661 3.75859 -0.0919944 4.39325 0.260006L21.2639 9.61334L16.1359 14.7267L1.94659 0.577339Z" fill="white"/>
</g>
<defs>
<clipPath id="clip0_149_8225">
<rect width="32" height="32" fill="white"/>
</clipPath>
</defs>
</svg>
