<svg width="32" height="32" viewBox="0 0 32 32" fill="none" xmlns="http://www.w3.org/2000/svg">
<path d="M29.3334 23.476C28.2854 26.516 25.1481 31.8987 21.9161 31.9573C19.7721 31.9987 19.0827 30.6867 16.6321 30.6867C14.1827 30.6867 13.4161 31.9173 11.3894 31.9973C7.96008 32.1293 2.66675 24.228 2.66675 17.3373C2.66675 11.008 7.07741 7.87067 10.9307 7.81333C12.9974 7.776 14.9494 9.20667 16.2094 9.20667C17.4747 9.20667 19.8454 7.48667 22.3374 7.73867C23.3801 7.78267 26.3094 8.15867 28.1894 10.908C23.2014 14.164 23.9787 20.9733 29.3334 23.476ZM22.3707 0C18.6027 0.152 15.5281 4.10533 15.9574 7.37467C19.4401 7.64533 22.7814 3.74133 22.3707 0Z" fill="white"/>
</svg>
